<?xml version="1.0" standalone="no"?>
<!DOCTYPE svg PUBLIC "-//W3C//DTD SVG 20010904//EN"
 "http://www.w3.org/TR/2001/REC-SVG-20010904/DTD/svg10.dtd">
<svg version="1.0" xmlns="http://www.w3.org/2000/svg"
 width="700.000000pt" height="700.000000pt" viewBox="0 0 700.000000 700.000000"
 preserveAspectRatio="xMidYMid meet">
<metadata>
Created by potrace 1.11, written by Peter Selinger 2001-2013
</metadata>
<g transform="translate(0.000000,700.000000) scale(0.100000,-0.100000)"
fill="#000000" stroke="none">
<path d="M3210 6989 c-722 -62 -1426 -354 -1970 -818 -160 -136 -404 -393
-528 -555 l-23 -30 83 -33 c463 -187 1200 -339 1908 -393 80 -6 168 -13 195
-16 28 -2 244 -7 480 -10 333 -5 493 -3 708 10 723 42 1389 153 1897 317 150
49 340 121 340 130 0 17 -166 216 -273 326 -607 629 -1381 999 -2242 1073
-138 11 -435 11 -575 -1z"/>
<path d="M377 5073 c-188 -375 -300 -747 -354 -1173 -24 -195 -24 -629 0 -805
40 -284 97 -538 130 -573 35 -38 201 -145 327 -211 332 -174 820 -324 1360
-420 198 -35 418 -66 425 -60 2 3 -11 59 -30 125 -34 121 -90 373 -84 378 2 2
69 -4 149 -14 697 -86 1564 -92 2275 -15 1080 117 1936 399 2328 766 l79 74
10 120 c11 131 4 457 -12 600 -17 153 -50 334 -85 475 -49 200 -39 187 -110
133 -378 -284 -1114 -522 -1972 -637 -170 -23 -273 -33 -616 -63 l-88 -8 66
-95 c36 -52 69 -109 75 -128 13 -48 -7 -101 -49 -129 -70 -47 -140 -30 -716
172 -366 128 -556 171 -940 210 -137 14 -266 29 -286 33 l-37 7 32 105 c55
181 115 328 213 528 52 107 93 195 91 196 -1 2 -59 9 -128 15 -697 69 -1433
252 -1875 467 -55 27 -103 50 -107 52 -4 2 -36 -54 -71 -125z"/>
<path d="M3630 3960 c-143 -28 -176 -141 -57 -201 108 -56 277 0 277 91 0 72
-116 131 -220 110z"/>
<path d="M1600 1622 c-93 -13 -102 -144 -24 -346 19 -49 33 -90 32 -91 -5 -5
-415 101 -524 134 -103 31 -300 102 -386 140 -27 11 -48 18 -48 15 0 -28 259
-330 401 -469 285 -277 549 -466 889 -636 724 -360 1539 -460 2328 -283 323
72 692 216 977 381 98 57 327 211 375 252 l35 30 -55 -15 c-91 -24 -377 -81
-536 -108 -508 -85 -961 -119 -1574 -119 l-424 0 -69 74 c-155 168 -341 430
-458 643 l-54 99 -155 74 c-188 90 -344 153 -465 188 -89 26 -216 43 -265 37z
m402 -251 c189 -49 357 -161 418 -281 11 -22 24 -71 27 -107 5 -57 4 -68 -12
-79 -92 -68 -530 146 -657 320 -47 65 -33 135 32 159 32 12 120 6 192 -12z"/>
</g>
</svg>
